# xmcd
#
# Track frame offsets:
#	150
#	22800
#	51514
#	71647
#	93100
#	111950
#	130430
#	147002
#	169732
#	190872
#
# Disc length: 2880 seconds
#
# Revision: 1
# Processed by: cddbd v1.5.2PL0 Copyright (c) Steve Scherf et al.
# Submitted via: EZCDAudioConverter 8.0.2.1
#
DISCID=880b3e0a
DTITLE=Phương Lam, Sơn Tuyền - Cánh Thư Mùa hạ
DYEAR=1993
DGENRE=Contemporary Pop
TTITLE0=Phương Lam - Trên nhịp cầu tre
TTITLE1=Phương Lam, Sơn Tuyền - Tôi vẫn nhớ
TTITLE2=Phương Lam - Hoa sứ nhà nàng
TTITLE3=Phương Lam - Trăm năm bến cũ
TTITLE4=Phương Lam - Cánh Thư Mùa hạ
TTITLE5=Phương Lam - Còn trong hy vọng
TTITLE6=Phương Lam - Mưa đêm đọc hành
TTITLE7=Phương Lam - Giọt lệ đài trang
TTITLE8=Phương Lam - Bướm trắng
TTITLE9=Phương Lam - Như một cơn mê
EXTD=
EXTT0=
EXTT1=
EXTT2=
EXTT3=
EXTT4=
EXTT5=
EXTT6=
EXTT7=
EXTT8=
EXTT9=
PLAYORDER=
